<svg width="24" height="24" viewBox="0 0 24 24" fill="none"
    xmlns="http://www.w3.org/2000/svg">
    <g clip-path="url(#clip0_270_7911)">
        <path d="M10 12C10 12.5304 10.2107 13.0391 10.5858 13.4142C10.9609 13.7893 11.4696 14 12 14C12.5304 14 13.0391 13.7893 13.4142 13.4142C13.7893 13.0391 14 12.5304 14 12C14 11.4696 13.7893 10.9609 13.4142 10.5858C13.0391 10.2107 12.5304 10 12 10C11.4696 10 10.9609 10.2107 10.5858 10.5858C10.2107 10.9609 10 11.4696 10 12Z" stroke="#41404D" stroke-width="2" stroke-linecap="round" stroke-linejoin="round"/>
        <path d="M6.66666 12.0002C6.66666 13.4147 7.22856 14.7712 8.22876 15.7714C9.22895 16.7716 10.5855 17.3335 12 17.3335M6.66666 12.0002C6.66666 10.5857 7.22856 9.22912 8.22876 8.22893C9.22895 7.22873 10.5855 6.66683 12 6.66683M6.66666 12.0002H5.33333M12 17.3335C13.4145 17.3335 14.771 16.7716 15.7712 15.7714C16.7714 14.7712 17.3333 13.4147 17.3333 12.0002M12 17.3335V18.6668M17.3333 12.0002C17.3333 10.5857 16.7714 9.22912 15.7712 8.22893C14.771 7.22873 13.4145 6.66683 12 6.66683M17.3333 12.0002H18.6667M12 6.66683V5.3335" stroke="#41404D" stroke-width="2" stroke-linecap="round" stroke-linejoin="round"/>
    </g>
    <defs>
        <clipPath id="clip0_270_7911">
            <rect width="16" height="16" fill="white" transform="translate(4 4)"/>
        </clipPath>
    </defs>
</svg>
