<?xml version="1.0" standalone="no"?>
<!DOCTYPE svg PUBLIC "-//W3C//DTD SVG 20010904//EN"
 "http://www.w3.org/TR/2001/REC-SVG-20010904/DTD/svg10.dtd">
<svg version="1.0" xmlns="http://www.w3.org/2000/svg"
 width="500.000000pt" height="500.000000pt" viewBox="0 0 500.000000 500.000000"
 preserveAspectRatio="xMidYMid meet">

<g transform="translate(0.000000,500.000000) scale(0.100000,-0.100000)"
fill="#000000" stroke="none">
<path d="M2115 4564 c-348 -63 -643 -258 -839 -554 -256 -387 -273 -907 -44
-1306 92 -162 194 -279 331 -383 171 -129 365 -213 572 -247 120 -19 340 -15
453 10 481 105 853 467 972 946 30 120 38 371 16 496 -46 269 -160 489 -351
680 -191 193 -424 314 -684 358 -116 20 -317 19 -426 0z m442 -63 c54 -11 127
-29 163 -41 87 -30 244 -111 309 -160 l53 -39 -46 -22 -46 -23 20 -33 19 -33
-37 -1 c-74 -3 -139 2 -219 18 -45 8 -97 13 -116 9 -58 -11 -116 -73 -191
-204 -61 -105 -72 -119 -88 -111 -19 10 -18 11 -244 -301 l-90 -125 -95 -5
-94 -5 -115 -94 c-169 -137 -156 -116 -152 -254 l3 -117 50 0 49 0 0 -325 c0
-179 -3 -325 -6 -325 -16 0 -136 95 -198 156 -279 279 -404 662 -341 1050 70
430 373 792 785 938 190 67 430 85 627 47z m634 -338 c70 -75 138 -163 177
-233 l32 -56 -55 -31 -54 -32 -34 57 c-19 31 -63 107 -97 167 -35 61 -70 120
-77 132 -13 20 -12 23 14 37 15 8 31 15 34 16 3 0 30 -26 60 -57z m-396 -58
c44 -8 123 -15 175 -15 l95 0 32 -58 c18 -31 51 -89 73 -128 l40 -71 -96 -64
c-134 -90 -137 -91 -238 -99 -77 -6 -111 -15 -220 -59 -142 -57 -164 -58 -188
-6 -16 36 12 71 82 99 30 13 99 44 153 69 105 49 115 64 77 105 -27 28 -64 37
-109 26 -29 -7 -44 -21 -76 -70 -53 -82 -74 -92 -124 -58 l-39 26 70 121 c38
67 87 139 109 160 44 43 60 45 184 22z m-81 -253 c3 -5 -10 -16 -29 -25 -39
-19 -47 -7 -13 17 25 18 35 20 42 8z m739 -94 c117 -295 105 -656 -32 -944
-98 -204 -249 -384 -413 -489 l-28 -17 0 326 0 326 50 0 50 0 0 124 0 124
-137 111 c-88 70 -147 111 -161 111 l-24 0 29 38 c45 57 45 58 2 88 l-40 28
27 14 c16 8 71 18 124 22 106 7 98 4 234 94 54 36 102 66 107 66 4 0 11 -9 14
-20 9 -28 20 -25 95 20 36 22 68 39 71 40 4 0 18 -28 32 -62z m-1025 -65 c-22
-24 -47 -27 -88 -10 -10 5 -24 -6 -42 -31 -14 -20 -40 -56 -57 -78 l-31 -42
24 -16 c25 -16 25 -15 65 42 39 55 43 58 76 54 27 -3 37 -10 41 -28 10 -40 60
-74 107 -74 40 0 43 -2 55 -40 12 -40 12 -41 -29 -95 -33 -44 -47 -55 -70 -55
-19 0 -32 7 -40 23 -33 63 -90 99 -159 99 -61 0 -104 -23 -143 -78 -26 -37
-36 -44 -65 -44 -18 0 -32 4 -30 10 2 5 74 109 162 229 l159 220 44 -30 45
-31 -24 -25z m296 -157 l29 -24 -72 -96 c-63 -86 -91 -112 -91 -88 0 5 18 32
40 62 39 52 39 54 20 67 -28 19 -26 67 2 87 29 21 37 20 72 -8z m-368 -177
c13 -12 24 -26 24 -31 0 -4 -45 -8 -101 -8 -111 0 -119 7 -58 48 42 29 99 25
135 -9z m-366 4 c0 -16 -35 -43 -57 -43 -18 0 -23 -5 -23 -25 l0 -25 425 0
425 0 0 25 c0 22 -4 25 -35 25 -38 0 -42 6 -21 33 8 11 27 17 49 17 31 0 53
-13 138 -82 l102 -83 -326 -3 c-179 -1 -475 -1 -658 0 l-332 3 99 82 c98 81
99 82 157 82 31 1 57 -2 57 -6z m1038 -280 l3 -63 -696 0 -695 0 0 58 c0 32 3
62 7 65 3 4 315 6 692 5 l686 -3 3 -62z m-98 -463 l0 -340 -32 -20 c-56 -34
-177 -81 -277 -107 -118 -31 -335 -42 -462 -23 -111 16 -237 53 -336 100 l-83
39 0 345 0 346 595 0 595 0 0 -340z"/>
<path d="M2173 2799 c-52 -26 -89 -91 -79 -143 10 -51 60 -119 154 -206 l85
-79 79 71 c97 87 126 121 150 175 24 54 16 103 -24 149 -42 47 -95 60 -159 39
-33 -10 -55 -12 -67 -6 -41 21 -96 22 -139 0z m110 -50 c14 -6 31 -22 38 -35
l12 -24 15 23 c38 57 96 65 143 18 41 -41 38 -77 -10 -138 -37 -48 -139 -143
-152 -143 -4 0 -43 38 -88 85 -56 60 -82 95 -87 119 -14 78 55 129 129 95z"/>
<path d="M4409 1957 c-42 -32 -50 -90 -19 -130 43 -55 140 -43 166 20 18 41 9
77 -23 103 -29 23 -99 27 -124 7z"/>
<path d="M430 1496 l0 -446 174 0 c146 0 184 3 237 20 165 52 256 186 267 390
8 167 -34 288 -134 379 -89 81 -135 94 -356 99 l-188 4 0 -446z m398 261 c76
-50 113 -187 93 -339 -21 -156 -79 -214 -227 -225 l-74 -6 0 303 0 303 84 -5
c70 -4 91 -9 124 -31z"/>
<path d="M1504 1702 c-28 -10 -64 -28 -80 -41 -38 -30 -74 -89 -74 -123 l0
-28 85 0 c70 0 85 3 85 15 0 9 11 27 25 40 18 19 35 25 70 25 64 0 95 -31 95
-95 l0 -45 -79 0 c-190 0 -301 -81 -301 -220 0 -43 29 -108 61 -137 78 -72
232 -75 311 -6 15 14 18 13 24 -11 6 -26 7 -26 96 -26 89 0 90 0 83 23 -4 12
-11 126 -14 252 -5 147 -12 241 -20 260 -17 41 -58 83 -106 108 -57 29 -191
34 -261 9z m206 -416 c0 -58 -3 -67 -26 -85 -47 -37 -124 -40 -158 -5 -20 20
-21 83 -1 112 19 26 62 40 133 41 l52 1 0 -64z"/>
<path d="M2300 1705 c-82 -25 -160 -111 -160 -175 0 -18 6 -20 84 -20 l84 0
11 30 c17 49 106 68 150 33 21 -17 47 -96 36 -112 -2 -5 -48 -11 -102 -14
-123 -7 -167 -21 -219 -72 -100 -96 -74 -254 51 -315 82 -40 194 -28 257 28
16 13 18 12 27 -12 10 -25 13 -26 99 -26 l89 0 -13 52 c-10 35 -14 116 -14
248 0 190 -1 198 -25 247 -28 56 -77 95 -140 112 -54 15 -160 13 -215 -4z
m208 -407 c4 -57 -9 -83 -51 -108 -68 -42 -157 -12 -157 54 0 67 58 107 150
103 l55 -2 3 -47z"/>
<path d="M3200 1704 c-19 -8 -47 -27 -62 -41 l-27 -25 -6 36 -7 36 -79 0 -79
0 0 -330 0 -330 85 0 85 0 0 233 0 233 31 30 c26 25 38 29 84 29 43 0 59 -5
77 -23 22 -22 23 -28 26 -262 l3 -240 91 0 90 0 -4 253 c-5 259 -10 292 -51
351 -42 60 -175 86 -257 50z"/>
<path d="M4380 1380 l0 -330 90 0 90 0 0 330 0 330 -90 0 -90 0 0 -330z"/>
<path d="M3760 1430 l0 -70 170 0 170 0 0 70 0 70 -170 0 -170 0 0 -70z"/>
<path d="M2755 800 c-3 -5 -1 -19 5 -30 9 -17 17 -20 44 -15 28 6 35 3 50 -19
l16 -26 -62 -1 c-35 0 -127 0 -205 1 -150 1 -172 -2 -152 -26 7 -9 31 -14 65
-14 47 0 54 -3 54 -20 0 -16 -4 -18 -23 -11 -63 24 -105 -56 -51 -98 15 -11
37 -21 50 -21 14 0 24 -6 24 -14 0 -13 20 -26 41 -26 5 0 9 16 9 35 0 22 8 43
20 55 40 40 57 14 18 -27 -21 -22 -21 -24 -5 -41 21 -20 45 -9 65 32 25 51
-23 113 -76 100 -13 -4 -21 0 -24 14 -5 19 0 21 66 24 113 5 140 -2 144 -34 3
-24 0 -28 -21 -28 -48 0 -42 -30 17 -89 l56 -56 21 21 21 21 -37 23 c-34 21
-35 23 -19 41 11 12 15 30 12 59 -3 39 -3 40 29 40 39 0 41 5 9 39 -14 14 -39
43 -56 64 -25 29 -39 37 -65 37 -19 0 -37 -4 -40 -10z m-188 -224 c-8 -20 -47
-21 -47 -1 0 18 32 37 44 25 5 -5 6 -16 3 -24z"/>
<path d="M4317 804 c-3 -3 -1 -17 5 -30 9 -18 18 -23 45 -21 26 1 39 -4 50
-20 l15 -23 -98 -1 c-308 -2 -339 -4 -339 -19 0 -12 16 -16 73 -18 64 -3 72
-5 72 -23 0 -16 -3 -18 -19 -9 -44 23 -93 6 -106 -38 -9 -30 51 -92 90 -92 14
0 33 -7 41 -15 9 -8 24 -15 35 -15 17 0 19 8 19 83 0 51 -5 88 -12 95 -9 9 10
12 85 12 80 0 97 -3 97 -15 0 -10 -10 -15 -29 -15 -40 0 -81 -35 -81 -70 0
-39 43 -87 91 -102 35 -10 43 -9 67 9 35 26 38 43 12 76 -35 44 -100 27 -87
-23 3 -13 0 -20 -9 -20 -19 0 -29 47 -14 65 8 9 30 15 56 15 42 0 44 2 44 28
0 15 -5 33 -12 40 -9 9 -4 12 25 12 31 0 37 3 37 21 0 25 -53 104 -75 113 -21
8 -70 8 -78 0z m-179 -217 c5 -23 -10 -21 -26 4 -12 18 -11 20 5 17 10 -2 19
-11 21 -21z m-38 -18 c9 -16 7 -19 -10 -19 -15 0 -20 7 -20 26 0 27 14 25 30
-7z m310 -33 c0 -8 -4 -17 -9 -20 -10 -7 -23 19 -14 28 11 11 23 6 23 -8z"/>
<path d="M4511 771 c-9 -17 -8 -22 10 -32 24 -12 41 3 36 31 -4 23 -34 24 -46
1z"/>
<path d="M1742 692 c3 -14 16 -18 66 -20 70 -3 87 -25 26 -35 -49 -8 -64 -23
-64 -64 0 -40 34 -79 77 -88 48 -11 51 -13 55 -36 3 -26 17 -33 37 -20 12 8
13 14 3 36 -9 20 -10 31 -1 41 8 10 6 19 -8 38 -22 30 -43 33 -50 7 -10 -39
-63 -36 -63 4 0 26 17 35 66 35 31 0 34 3 34 29 0 17 -6 33 -12 38 -8 5 2 10
27 13 74 10 75 8 75 -91 0 -76 3 -90 19 -98 10 -6 21 -7 25 -4 3 3 6 46 6 95
0 63 -4 88 -12 89 -40 4 68 13 124 11 59 -3 68 -6 68 -23 0 -16 -7 -19 -55
-19 -65 0 -79 -17 -48 -58 26 -35 53 -40 60 -13 3 12 13 21 24 21 16 0 19 -8
19 -43 0 -32 5 -45 20 -55 28 -17 32 -3 28 102 -3 84 -3 86 20 86 17 0 23 5
20 18 -3 16 -26 17 -296 19 -274 2 -293 1 -290 -15z"/>
<path d="M3205 700 c-11 -18 5 -30 41 -30 31 0 34 -2 34 -30 0 -23 -4 -30 -20
-30 -42 0 -34 -30 23 -88 48 -47 58 -54 71 -43 24 20 19 34 -22 58 l-37 22 53
1 52 0 0 -34 c0 -33 13 -46 46 -46 18 0 20 160 2 178 -9 9 -2 12 35 12 l47 0
0 -89 c0 -72 3 -90 16 -95 33 -13 35 -6 32 89 l-3 95 28 0 c29 0 35 11 14 28
-16 14 -403 16 -412 2z m195 -65 c0 -32 -2 -35 -30 -35 -25 0 -30 4 -30 23 0
13 -5 28 -12 35 -9 9 -3 12 30 12 41 0 42 -1 42 -35z"/>
<path d="M3657 704 c-12 -13 -8 -51 8 -64 17 -14 30 -7 30 17 0 9 6 18 13 20
16 6 16 -29 0 -45 -7 -7 -20 -12 -30 -12 -47 0 -24 -66 33 -95 17 -9 38 -15
47 -13 9 2 26 -7 39 -20 13 -13 28 -20 33 -17 14 9 13 168 -2 183 -9 9 -5 12
20 12 18 0 32 4 32 8 0 19 -27 32 -66 32 -45 0 -64 -14 -45 -33 6 -6 11 -33
11 -59 0 -43 -3 -50 -26 -58 -34 -13 -44 -13 -44 3 0 8 11 19 25 25 59 27 32
114 -36 120 -19 2 -38 0 -42 -4z"/>
<path d="M3010 535 c-6 -7 -8 -24 -5 -38 4 -14 2 -28 -4 -32 -6 -3 -9 -11 -6
-16 8 -13 42 7 55 32 21 37 -14 85 -40 54z"/>
<path d="M4470 465 c-10 -12 -10 -18 0 -30 17 -20 27 -19 40 5 14 26 -21 48
-40 25z"/>
</g>
</svg>
